# xmcd CD database file
#
# Track frame offsets:
#	150
#	22342
#	52595
#	77060
#	106387
#	135747
#	163417
#	185500
#	231117
#	273572
#	292857
#
# Disc length: 4229 seconds
#
# Revision: 0
# Processed by: cddbd v1.5.1PL2 Copyright (c) Steve Scherf et al.
# Submitted via: CDex 1.51
#
DISCID=9810830b
DTITLE=Various Artist - MODERN JAZZ(2)
DYEAR=1900
DGENRE=Jazz
TTITLE0=Night Lights - Gerry Mulligan
TTITLE1='Round Midnight - Thelonious Monk
TTITLE2=I'm A Fool To Want You - Duke Pearson
TTITLE3=You Don't Know What Love Is - Sonny Rollins
TTITLE4=Besame Mucho - Wes Montgomery
TTITLE5=Willow Weep For Me - Wynton Kelly
TTITLE6=Golden Earrings - Ray Bryant
TTITLE7=Moritat - Sonny Rollins
TTITLE8=Cool Struttin' - Sonny Clark
TTITLE9=Work Song - Nat Adderley
TTITLE10=Take Five - The Dave Brubeck Quartet
EXTD=
EXTT0=
EXTT1=
EXTT2=
EXTT3=
EXTT4=
EXTT5=
EXTT6=
EXTT7=
EXTT8=
EXTT9=
EXTT10=
PLAYORDER=
